<svg style="transform: rotate(180deg);" width="1920" height="240" viewBox="0 0 1920 240" xmlns="http://www.w3.org/2000/svg"><path d="M 0,240 C 0,240 0,40 0,40 C 89.00256410256412,42.0025641025641 178.00512820512824,44.0051282051282 293,48 C 407.99487179487176,51.9948717948718 548.9820512820512,57.98205128205128 660,52 C 771.0179487179488,46.01794871794872 852.0666666666668,28.066666666666666 962,28 C 1071.9333333333332,27.933333333333334 1210.751282051282,45.751282051282054 1326,46 C 1441.248717948718,46.248717948717946 1532.928205128205,28.92820512820513 1628,25 C 1723.071794871795,21.07179487179487 1821.5358974358974,30.535897435897436 1920,40 C 1920,40 1920,240 1920,240 Z" fill="#101827" opacity="0.09999999999999999"/><path d="M 0,240 C 0,240 0,80 0,80 C 75.26923076923075,85.01282051282051 150.5384615384615,90.02564102564102 265,88 C 379.4615384615385,85.97435897435898 533.1153846153846,76.91025641025642 656,76 C 778.8846153846154,75.08974358974358 871,82.33333333333333 975,86 C 1079,89.66666666666667 1194.8846153846155,89.75641025641026 1285,86 C 1375.1153846153845,82.24358974358974 1439.4615384615386,74.64102564102564 1541,73 C 1642.5384615384614,71.35897435897436 1781.2692307692307,75.67948717948718 1920,80 C 1920,80 1920,240 1920,240 Z" fill="#101827" opacity="0.19999999999999998"/><path d="M 0,240 C 0,240 0,120 0,120 C 106.56923076923076,125.54871794871795 213.1384615384615,131.0974358974359 322,127 C 430.8615384615385,122.90256410256411 542.0153846153846,109.15897435897436 665,110 C 787.9846153846154,110.84102564102564 922.8000000000002,126.26666666666668 1016,127 C 1109.1999999999998,127.73333333333332 1160.7846153846153,113.77435897435898 1240,114 C 1319.2153846153847,114.22564102564102 1426.0615384615385,128.63589743589745 1544,132 C 1661.9384615384615,135.36410256410255 1790.9692307692308,127.68205128205128 1920,120 C 1920,120 1920,240 1920,240 Z" fill="#101827" opacity="0.3"/><path d="M 0,240 C 0,240 0,160 0,160 C 82.8692307692308,155.95384615384614 165.7384615384616,151.9076923076923 267,152 C 368.2615384615384,152.0923076923077 487.9153846153846,156.32307692307694 616,157 C 744.0846153846154,157.67692307692306 880.5999999999999,154.8 982,158 C 1083.4,161.2 1149.6846153846152,170.4769230769231 1243,169 C 1336.3153846153848,167.5230769230769 1456.6615384615384,155.29230769230767 1574,152 C 1691.3384615384616,148.70769230769233 1805.6692307692308,154.35384615384618 1920,160 C 1920,160 1920,240 1920,240 Z" fill="#101827" opacity="0.39999999999999997"/><path d="M 0,240 C 0,240 0,200 0,200 C 90.47948717948717,207.0923076923077 180.95897435897433,214.1846153846154 299,210 C 417.04102564102567,205.8153846153846 562.6435897435898,190.35384615384615 664,187 C 765.3564102564102,183.64615384615385 822.4666666666667,192.4 925,197 C 1027.5333333333333,201.6 1175.4897435897437,202.04615384615386 1296,198 C 1416.5102564102563,193.95384615384614 1509.5743589743588,185.4153846153846 1609,185 C 1708.4256410256412,184.5846153846154 1814.2128205128206,192.2923076923077 1920,200 C 1920,200 1920,240 1920,240 Z" fill="#101827" opacity="0.49999999999999994"/></svg>